<svg width="89" height="105" viewBox="0 0 89 105" fill="none" xmlns="http://www.w3.org/2000/svg">
<path d="M2.94237 26.4574C2.44965 22.7701 3.4153 16.5878 7.93512 15.9838C10.1475 15.6882 11.0329 17.2406 11.2141 18.5965C11.3285 19.4529 11.3956 21.042 10.2537 21.1946C9.58765 21.2836 9.16088 20.8079 9.10684 20.4035C9.0687 20.1181 9.1051 19.8469 9.16528 19.5725C9.1985 19.2775 9.23808 19.0301 9.20311 18.7684C9.12682 18.1975 8.78414 17.8074 8.09427 17.8996C7.59471 17.9663 7.12059 18.2234 6.8019 18.5566C5.20367 20.005 5.27301 23.9667 5.5146 25.7747C5.74348 27.4874 6.53448 31.5949 8.93712 31.2738C9.62699 31.1816 10.1407 30.6771 10.4577 30.1505C10.6607 29.857 10.7716 29.6001 10.8794 29.3193C10.9839 29.0148 11.0917 28.734 11.2201 28.4263C11.2343 28.3518 11.2486 28.2772 11.2898 28.2233C11.4071 28.0139 11.637 27.7411 12.0176 27.6902C12.7313 27.5948 13.1676 28.1419 13.2216 28.5463C13.2375 28.6652 13.2328 28.8111 13.2011 28.9364C12.8273 30.4876 11.545 33.0319 9.07095 33.3625C5.24099 33.8743 3.36515 29.6212 2.94237 26.4574ZM15.6224 31.5185C15.4033 30.6034 15.2968 29.6249 15.122 28.6797C14.7805 26.6673 14.4389 24.6548 14.1719 22.6565C13.8953 20.5869 13.6171 18.3238 13.5785 16.2224C13.5862 15.7371 13.8731 15.1661 14.6582 15.0612C15.3242 14.9722 15.9556 15.3479 16.0255 15.8712L16.0318 15.9188C16.1482 18.0582 16.3328 20.1643 16.6157 22.2815L16.8192 23.804C17.3564 22.2068 18.4294 19.9084 20.5704 19.6223C22.9254 19.3076 23.8587 21.9432 24.1398 23.1405C24.5225 24.7359 24.7688 26.3979 25.0389 28.0568C25.1199 28.4818 25.2041 28.9306 25.2645 29.3826L25.3344 29.9059C25.3329 30.0756 25.3313 30.2453 25.2822 30.4214C25.1602 30.7767 24.8352 31.0622 24.1691 31.1512C23.4316 31.2498 22.8511 30.8915 22.7748 30.3206C22.5078 28.3223 22.1756 26.018 21.7453 24.0658C21.6182 23.4775 21.4912 22.8891 21.2214 22.3198C21.1849 22.2279 21.0849 22.0233 20.9405 21.8489C20.8834 21.7839 20.6883 21.592 20.5931 21.6048C20.4504 21.6238 20.2284 21.7746 19.9985 22.0474C19.7861 22.2695 19.6038 22.536 19.5277 22.6914C18.2485 24.8963 17.9353 27.989 17.9376 30.3616L17.9535 30.4806C17.9885 30.7423 18.044 30.977 18.0758 31.2148C18.1489 31.762 17.6828 32.2601 16.9692 32.3555C16.2317 32.454 15.7399 32.0355 15.6224 31.5185ZM27.4606 29.6944C27.3398 28.7905 27.3141 27.8738 27.1933 26.9698C26.8723 24.5672 26.2483 22.2534 25.3357 19.9541C25.3024 19.8859 25.2929 19.8145 25.2833 19.7431C25.1911 19.0533 25.8539 18.5773 26.639 18.4724C27.1861 18.3993 27.6159 18.5355 27.8635 18.9383C27.9634 19.1429 28.0666 19.3712 28.1428 19.579C28.1984 19.8137 28.2745 20.0214 28.3269 20.2323C28.5222 20.7873 28.7 21.3931 28.8746 21.9751C29.4515 20.4937 31.2904 17.9477 32.9081 17.7315C33.6455 17.633 34.0961 18.1055 34.1596 18.5812C34.2137 18.9856 34.0758 19.222 33.7856 19.406C33.6762 19.4933 33.5128 19.5393 33.3733 19.5822C33.2369 19.6488 33.0974 19.6917 32.9404 19.7853C31.6242 20.4455 30.8444 22.2204 30.545 23.4226C30.225 24.6519 30.1762 25.9175 30.1512 27.1799C30.1386 27.4479 30.1642 28.0014 30.1659 28.5581C30.1599 29.6001 30.0951 30.3836 28.8581 30.5489C27.9779 30.6665 27.5432 30.3129 27.4606 29.6944ZM36.7077 28.5314C36.6219 27.8891 36.5772 27.1929 36.4914 26.5506L35.7234 19.5345C35.6931 19.1269 35.6295 18.6512 35.5961 18.2198C35.5642 17.6187 36.0367 17.1682 36.7741 17.0696C37.4878 16.9742 38.1572 17.2722 38.2366 17.8669C38.3256 18.533 38.3671 19.2054 38.4561 19.8715L39.221 26.8638C39.2544 27.2952 39.318 27.771 39.3482 28.1785C39.3801 28.7796 38.887 29.2571 38.1258 29.3589C37.4121 29.4542 36.7872 29.1261 36.7077 28.5314ZM35.3034 15.3049L35.2494 14.9005C35.224 14.7101 35.1699 14.3057 35.1397 13.8982C35.092 13.5413 35.0855 13.1306 35.1584 12.9513C35.2979 12.5453 35.7387 12.22 36.2383 12.1533C36.9757 12.0547 37.5832 12.4336 37.6595 13.0045L37.6691 13.0759C37.6803 13.7039 37.763 14.3224 37.8219 14.9441C37.868 15.4706 37.4796 16.0068 36.7184 16.1085C36.0523 16.1975 35.3734 15.8282 35.3034 15.3049ZM40.937 26.4892C40.8893 26.1324 41.081 25.5741 41.7471 25.4851C42.0088 25.4501 42.2594 25.5135 42.4688 25.6308C42.6718 25.7005 42.8812 25.8178 43.1143 25.9319C43.5807 26.1602 44.1184 26.3789 44.951 26.2676C45.8074 26.1532 46.5558 25.5931 46.4699 24.9508C46.3809 24.2848 45.6893 23.8203 44.7931 23.4558C44.33 23.2513 43.8462 23.0738 43.41 22.89C42.1823 22.4003 40.9435 21.6457 40.7528 20.2184C40.5398 18.6246 41.8176 16.9526 43.9586 16.6665C44.8149 16.552 45.6111 16.712 46.3075 17.0306C46.9023 17.3143 47.7018 17.8612 47.7876 18.5035C47.8416 18.9079 47.5547 19.4789 46.8887 19.5679C46.6032 19.6061 46.1528 19.4968 45.9751 19.2542C45.9481 19.2336 45.9179 19.1892 45.864 19.148C45.45 18.7675 44.8282 18.4631 44.2097 18.5458C43.4484 18.6475 43.1726 19.1202 43.2521 19.7149C43.3252 20.262 43.7202 20.4998 44.342 20.8042C44.6529 20.9563 44.9606 21.0847 45.2921 21.2099C45.5998 21.3383 45.9313 21.4635 46.239 21.5918C47.6094 22.0625 48.5422 22.8821 48.7425 24.3808C48.9618 26.0222 47.9949 27.8464 45.5685 28.1706C44.1887 28.355 41.1277 27.9165 40.937 26.4892ZM50.7017 20.9228C50.546 19.7572 50.4679 18.6296 50.4073 17.4513L49.8364 17.5275C49.0989 17.6261 48.7166 17.1203 48.6594 16.6921C48.5894 16.1687 48.8161 15.8721 49.2284 15.6959C49.4362 15.6197 49.6503 15.5911 49.8612 15.5387C50.0277 15.5165 50.1974 15.518 50.3401 15.4989C50.2987 14.8265 50.2811 14.1509 50.2872 13.4721C50.2918 12.963 50.5819 12.4158 51.3907 12.3077C52.1995 12.1996 52.7214 12.6626 52.7945 13.2097L52.8041 13.2811C52.8154 13.9091 52.8536 14.5577 52.8617 15.162C53.4326 15.0857 54.0242 14.9824 54.6015 14.9537C55.2501 14.9155 55.5611 15.4308 55.6088 15.7877C55.6628 16.1921 55.4029 16.7837 54.6892 16.8791L52.9051 17.1175C52.9689 18.3196 53.0501 19.471 53.2091 20.6604C53.3521 21.7309 53.8781 25.4863 55.4482 25.2765C55.6623 25.2479 55.8431 25.1511 56.0682 25.0242C56.1808 24.9607 56.2902 24.8734 56.406 24.8338C56.5424 24.7671 56.6819 24.7243 56.8484 24.702C57.4431 24.6225 57.7731 24.9174 57.8271 25.3218C57.967 26.3685 56.7524 27.0635 55.6105 27.2161C54.3735 27.3814 53.1252 26.9187 52.4462 26.1862C51.3611 24.951 50.8988 22.3977 50.7017 20.9228ZM59.1953 25.5264C59.1095 24.8841 59.0649 24.1879 58.979 23.5456L58.211 16.5295C58.1807 16.1219 58.1172 15.6462 58.0837 15.2148C58.0518 14.6137 58.5243 14.1632 59.2618 14.0646C59.9754 13.9693 60.6448 14.2672 60.7243 14.862C60.8133 15.528 60.8547 16.2005 60.9437 16.8665L61.7086 23.8588C61.742 24.2902 61.8056 24.766 61.8358 25.1736C61.8677 25.7746 61.3746 26.2522 60.6134 26.3539C59.8997 26.4492 59.2748 26.1211 59.1953 25.5264ZM57.7911 12.2999L57.737 11.8955C57.7116 11.7052 57.6576 11.3008 57.6273 10.8932C57.5796 10.5364 57.5732 10.1256 57.6461 9.94635C57.7855 9.54031 58.2263 9.21505 58.7259 9.1483C59.4633 9.04976 60.0708 9.42863 60.1471 9.99955L60.1567 10.0709C60.168 10.699 60.2506 11.3175 60.3095 11.9391C60.3556 12.4657 59.9672 13.0018 59.206 13.1036C58.5399 13.1926 57.861 12.8232 57.7911 12.2999ZM66.6954 25.4927C64.4593 25.7915 63.4878 22.8705 63.2558 21.1339C62.798 17.7084 64.4969 13.3893 68.3269 12.8775C69.2546 12.7535 70.1698 12.8976 70.9613 13.2034C71.3467 13.3699 72.0589 13.8074 72.1193 14.2594L72.1257 14.3069C72.207 15.8215 72.1932 17.3488 72.3966 18.8713C72.6128 20.4889 73.0176 21.8876 74.0537 23.2988C74.1409 23.4082 74.2282 23.5176 74.2504 23.6841C74.3267 24.2551 73.6465 24.7818 73.0042 24.8676C72.5284 24.9312 72.1668 24.7616 71.8876 24.4841C71.326 23.9054 70.78 22.3561 70.5005 21.3523C69.8999 22.8369 68.6937 25.2257 66.6954 25.4927ZM65.4064 21.2824C65.5018 21.996 65.6511 22.7509 66.1143 23.3185C66.2555 23.4692 66.4078 23.5215 66.5505 23.5024C67.0501 23.4356 67.5621 22.7377 68.0012 21.8557C68.8602 19.9492 69.5667 16.9007 69.7073 14.8722C69.3282 14.7534 68.9079 14.6885 68.5035 14.7425C67.9088 14.822 67.4378 15.1029 67.0303 15.4963C65.486 16.986 65.1648 19.4744 65.4064 21.2824ZM75.7717 23.4082C75.3494 21.6971 75.0681 19.7734 74.836 18.0368L74.7343 17.2756C74.5769 15.9164 74.4369 14.5066 74.4017 13.1553C74.3857 12.6732 74.7027 12.1466 75.4639 12.0449C76.0824 11.9622 76.7788 12.2808 76.8487 12.8041L76.8551 12.8517C76.914 13.8366 76.9999 14.842 77.0827 15.8237C77.6373 14.1758 78.7072 11.8536 80.8481 11.5675C83.227 11.2496 84.1333 13.8646 84.4176 15.0857C84.9051 17.1029 85.2562 19.1868 85.5327 21.2564L85.6026 21.7797C85.7075 22.5648 85.2557 22.9883 84.4706 23.0932C83.7094 23.195 83.1526 22.8335 83.0526 22.2658L83.0112 21.9565C82.8618 20.8385 82.6918 19.7474 82.4948 18.6357C82.3566 17.7825 82.2358 16.8785 82.0468 16.0079C81.9198 15.4195 81.7689 14.8343 81.4992 14.265C81.4627 14.1731 81.3627 13.9685 81.2183 13.7941C81.158 13.7053 81.0771 13.6435 81.0232 13.6022C80.9455 13.5642 80.9185 13.5436 80.8947 13.5468C80.752 13.5658 80.53 13.7166 80.3001 13.9894C80.0876 14.2115 79.9291 14.4748 79.8293 14.6335C78.3439 17.108 78.2148 20.4909 78.2283 23.1284C78.219 23.7834 77.71 24.1419 77.0915 24.2246C76.354 24.3231 75.8861 23.9014 75.7717 23.4082Z" fill="#FE056C"/>
<path d="M46.9502 44.8555C47.6942 44.4912 48.0021 43.5928 47.6378 42.8487C47.2736 42.1047 46.3751 41.7968 45.631 42.1611L46.9502 44.8555ZM55.8359 93.4057C56.6077 93.1045 56.9892 92.2347 56.688 91.463L51.7802 78.8867C51.479 78.1149 50.6092 77.7335 49.8375 78.0346C49.0657 78.3358 48.6843 79.2056 48.9854 79.9773L53.3479 91.1562L42.169 95.5188C41.3973 95.8199 41.0158 96.6897 41.317 97.4614C41.6181 98.2332 42.4879 98.6147 43.2596 98.3135L55.8359 93.4057ZM45.631 42.1611C41.5247 44.1715 37.0982 47.0156 33.4921 50.4999C29.8979 53.9727 27.0093 58.1893 26.2113 62.9477C25.4006 67.7817 26.7889 72.9242 31.2643 78.0778C35.7008 83.1865 43.1888 88.3384 54.6881 93.382L55.8931 90.6346C44.5924 85.6782 37.5554 80.7467 33.5294 76.1107C29.5424 71.5195 28.5307 67.2557 29.17 63.4439C29.8219 59.5565 32.2334 55.8877 35.5767 52.6573C38.908 49.4385 43.0565 46.7618 46.9502 44.8555L45.631 42.1611Z" fill="#FE056C"/>
</svg>
